<svg width="184" height="57" viewBox="0 0 184 57" fill="none" xmlns="http://www.w3.org/2000/svg">
<path d="M176.704 56.9858H6.7963C3.06003 56.9858 0 53.8341 0 49.9858V7.98584C0 4.13759 3.06003 0.98584 6.7963 0.98584H176.704C180.44 0.98584 183.5 4.13759 183.5 7.98584V49.9858C183.5 53.8341 180.44 56.9858 176.704 56.9858Z" fill="black"/>
<path d="M176.704 2.10759C179.85 2.10759 182.411 4.74484 182.411 7.98584V49.9858C182.411 53.2268 179.85 55.8641 176.704 55.8641H6.7963C3.64961 55.8641 1.08911 53.2268 1.08911 49.9858V7.98584C1.08911 4.74484 3.64961 2.10759 6.7963 2.10759H176.704ZM176.704 0.98584H6.7963C3.06003 0.98584 0 4.13759 0 7.98584V49.9858C0 53.8341 3.06003 56.9858 6.7963 56.9858H176.704C180.44 56.9858 183.5 53.8341 183.5 49.9858V7.98584C183.5 4.13759 180.44 0.98584 176.704 0.98584Z" fill="#A6A6A6"/>
<path d="M64.4524 15.3269C64.4524 16.4959 64.1126 17.4322 63.4432 18.1304C62.6735 18.9582 61.671 19.3747 60.4426 19.3747C59.2685 19.3747 58.2661 18.9512 57.4437 18.1164C56.6197 17.2694 56.2085 16.2299 56.2085 14.9857C56.2085 13.7414 56.6197 12.7019 57.4437 11.8619C58.2661 11.0202 59.2685 10.5967 60.4426 10.5967C61.0271 10.5967 61.5844 10.7209 62.1162 10.9519C62.6463 11.1847 63.0778 11.4997 63.3905 11.8882L62.6803 12.6267C62.1349 11.9634 61.3924 11.6362 60.4426 11.6362C59.5863 11.6362 58.8438 11.9442 58.2134 12.5654C57.5898 13.1884 57.2772 13.9952 57.2772 14.9857C57.2772 15.9762 57.5898 16.7899 58.2134 17.4129C58.8438 18.0272 59.5863 18.3422 60.4426 18.3422C61.3516 18.3422 62.1162 18.0272 62.7193 17.4059C63.1169 16.9947 63.3429 16.4277 63.4024 15.7032H60.4426V14.6917H64.3912C64.4388 14.9104 64.4524 15.1222 64.4524 15.3269V15.3269Z" fill="white" stroke="white" stroke-width="0.16" stroke-miterlimit="10"/>
<path d="M70.7187 11.8201H67.0096V14.4801H70.3534V15.4916H67.0096V18.1516H70.7187V19.1823H65.9596V10.7893H70.7187V11.8201Z" fill="white" stroke="white" stroke-width="0.16" stroke-miterlimit="10"/>
<path d="M75.1382 19.1823H74.0882V11.8201H71.8131V10.7893H77.415V11.8201H75.1382V19.1823V19.1823Z" fill="white" stroke="white" stroke-width="0.16" stroke-miterlimit="10"/>
<path d="M81.4695 19.1823V10.7893H82.5178V19.1823H81.4695Z" fill="white" stroke="white" stroke-width="0.16" stroke-miterlimit="10"/>
<path d="M87.1648 19.1823H86.1233V11.8201H83.8397V10.7893H89.4484V11.8201H87.1648V19.1823Z" fill="white" stroke="white" stroke-width="0.16" stroke-miterlimit="10"/>
<path d="M100.053 18.1024C99.2493 18.9512 98.2536 19.3747 97.066 19.3747C95.8715 19.3747 94.8759 18.9512 94.0722 18.1024C93.2703 17.2554 92.871 16.2159 92.871 14.9857C92.871 13.7554 93.2703 12.7159 94.0722 11.8689C94.8759 11.0202 95.8715 10.5967 97.066 10.5967C98.2468 10.5967 99.2425 11.0202 100.046 11.8759C100.855 12.7299 101.254 13.7624 101.254 14.9857C101.254 16.2159 100.855 17.2554 100.053 18.1024ZM94.8487 17.3989C95.4536 18.0272 96.1893 18.3422 97.066 18.3422C97.9359 18.3422 98.6784 18.0272 99.2765 17.3989C99.8797 16.7707 100.185 15.9639 100.185 14.9857C100.185 14.0074 99.8797 13.2007 99.2765 12.5724C98.6784 11.9442 97.9359 11.6292 97.066 11.6292C96.1893 11.6292 95.4536 11.9442 94.8487 12.5724C94.2455 13.2007 93.9397 14.0074 93.9397 14.9857C93.9397 15.9639 94.2455 16.7707 94.8487 17.3989V17.3989Z" fill="white" stroke="white" stroke-width="0.16" stroke-miterlimit="10"/>
<path d="M102.727 19.1823V10.7893H104.001L107.963 17.3168H108.009L107.963 15.7033V10.7893H109.012V19.1823H107.918L103.768 12.3328H103.723L103.768 13.9533V19.1823H102.727V19.1823Z" fill="white" stroke="white" stroke-width="0.16" stroke-miterlimit="10"/>
<path d="M92.614 31.4393C89.4215 31.4393 86.8134 33.9418 86.8134 37.3946C86.8134 40.8193 89.4215 43.3481 92.614 43.3481C95.8134 43.3481 98.4215 40.8193 98.4215 37.3946C98.4215 33.9418 95.8134 31.4393 92.614 31.4393ZM92.614 41.0031C90.8623 41.0031 89.3552 39.5138 89.3552 37.3946C89.3552 35.2473 90.8623 33.7843 92.614 33.7843C94.3658 33.7843 95.8797 35.2473 95.8797 37.3946C95.8797 39.5138 94.3658 41.0031 92.614 41.0031V41.0031ZM79.9576 31.4393C76.7583 31.4393 74.157 33.9418 74.157 37.3946C74.157 40.8193 76.7583 43.3481 79.9576 43.3481C83.1553 43.3481 85.7583 40.8193 85.7583 37.3946C85.7583 33.9418 83.1553 31.4393 79.9576 31.4393ZM79.9576 41.0031C78.2042 41.0031 76.692 39.5138 76.692 37.3946C76.692 35.2473 78.2042 33.7843 79.9576 33.7843C81.7094 33.7843 83.2165 35.2473 83.2165 37.3946C83.2165 39.5138 81.7094 41.0031 79.9576 41.0031ZM64.897 33.2646V35.7951H70.7639C70.5923 37.2091 70.1336 38.2486 69.4302 38.9731C68.5738 39.8481 67.2401 40.8193 64.897 40.8193C61.2865 40.8193 58.4592 37.8181 58.4592 34.0993C58.4592 30.3806 61.2865 27.3793 64.897 27.3793C66.8493 27.3793 68.2697 28.1651 69.318 29.1836L71.0494 27.4003C69.5831 25.9583 67.6326 24.8506 64.897 24.8506C59.9459 24.8506 55.7849 28.9998 55.7849 34.0993C55.7849 39.1988 59.9459 43.3481 64.897 43.3481C67.5731 43.3481 69.5831 42.4451 71.1632 40.7511C72.7824 39.0833 73.2871 36.7383 73.2871 34.8448C73.2871 34.2568 73.2395 33.7161 73.1545 33.2646H64.897ZM126.482 35.2263C126.004 33.8946 124.531 31.4393 121.531 31.4393C118.557 31.4393 116.082 33.8526 116.082 37.3946C116.082 40.7301 118.532 43.3481 121.816 43.3481C124.472 43.3481 126.004 41.6803 126.635 40.7091L124.664 39.3563C124.006 40.3468 123.111 41.0031 121.816 41.0031C120.53 41.0031 119.607 40.3958 119.016 39.1988L126.748 35.9036L126.482 35.2263V35.2263ZM118.598 37.2091C118.532 34.9131 120.329 33.7371 121.617 33.7371C122.626 33.7371 123.483 34.2568 123.768 35.0006L118.598 37.2091V37.2091ZM112.313 42.9858H114.855V25.4858H112.313V42.9858ZM108.15 32.7658H108.065C107.495 32.0693 106.405 31.4393 105.026 31.4393C102.131 31.4393 99.4834 34.0573 99.4834 37.4138C99.4834 40.7511 102.131 43.3481 105.026 43.3481C106.405 43.3481 107.495 42.7128 108.065 41.9953H108.15V42.8493C108.15 45.1261 106.97 46.3493 105.065 46.3493C103.512 46.3493 102.549 45.1943 102.151 44.2231L99.9404 45.1733C100.578 46.7518 102.265 48.6943 105.065 48.6943C108.045 48.6943 110.56 46.8883 110.56 42.4941V31.8016H108.15V32.7658V32.7658ZM105.243 41.0031C103.492 41.0031 102.025 39.4928 102.025 37.4138C102.025 35.3156 103.492 33.7843 105.243 33.7843C106.97 33.7843 108.33 35.3156 108.33 37.4138C108.33 39.4928 106.97 41.0031 105.243 41.0031V41.0031ZM138.382 25.4858H132.303V42.9858H134.838V36.3551H138.382C141.197 36.3551 143.958 34.2568 143.958 30.9196C143.958 27.5841 141.191 25.4858 138.382 25.4858V25.4858ZM138.448 33.9208H134.838V27.9201H138.448C140.341 27.9201 141.422 29.5388 141.422 30.9196C141.422 32.2741 140.341 33.9208 138.448 33.9208ZM154.119 31.4061C152.287 31.4061 150.383 32.2391 149.599 34.0853L151.849 35.0566C152.333 34.0853 153.223 33.7703 154.165 33.7703C155.48 33.7703 156.814 34.5841 156.834 36.0208V36.2046C156.375 35.9316 155.393 35.5273 154.185 35.5273C151.762 35.5273 149.293 36.9011 149.293 39.4648C149.293 41.8098 151.278 43.3201 153.509 43.3201C155.215 43.3201 156.156 42.5273 156.747 41.6051H156.834V42.9578H159.282V36.2448C159.282 33.1421 157.033 31.4061 154.119 31.4061ZM153.813 40.9961C152.984 40.9961 151.828 40.5726 151.828 39.5138C151.828 38.1593 153.269 37.6396 154.516 37.6396C155.633 37.6396 156.156 37.8933 156.834 38.2276C156.635 39.8481 155.281 40.9961 153.813 40.9961V40.9961ZM168.202 31.7893L165.289 39.3756H165.202L162.189 31.7893H159.456L163.982 42.3908L161.399 48.2901H164.048L171.023 31.7893H168.202V31.7893ZM145.352 42.9858H147.893V25.4858H145.352V42.9858Z" fill="white"/>
<path d="M14.1843 11.5399C13.785 11.9704 13.554 12.6407 13.554 13.5087V44.4697C13.554 45.3377 13.785 46.008 14.1843 46.4385L14.2829 46.533L31.1275 29.1905V28.7809L14.2829 11.4384L14.1843 11.5399Z" fill="url(#paint0_linear_845_6509)"/>
<path d="M36.7364 34.9744L31.1277 29.1906V28.7811L36.7432 22.9974L36.8689 23.0726L43.5191 26.9699C45.417 28.0759 45.417 29.8959 43.5191 31.0089L36.8689 34.8991L36.7364 34.9744V34.9744Z" fill="url(#paint1_linear_845_6509)"/>
<path d="M36.8676 34.8991L31.1264 28.9858L14.1832 46.4386C14.8136 47.1211 15.8415 47.2033 17.0105 46.5208L36.8676 34.8991" fill="url(#paint2_linear_845_6509)"/>
<path d="M36.8676 23.0726L17.0105 11.4508C15.8415 10.7753 14.8136 10.8576 14.1832 11.5401L31.1264 28.9858L36.8676 23.0726Z" fill="url(#paint3_linear_845_6509)"/>
<defs>
<linearGradient id="paint0_linear_845_6509" x1="29.6319" y1="44.7921" x2="6.14675" y2="21.9904" gradientUnits="userSpaceOnUse">
<stop stop-color="#00A0FF"/>
<stop offset="0.0066" stop-color="#00A1FF"/>
<stop offset="0.2601" stop-color="#00BEFF"/>
<stop offset="0.5122" stop-color="#00D2FF"/>
<stop offset="0.7604" stop-color="#00DFFF"/>
<stop offset="1" stop-color="#00E3FF"/>
</linearGradient>
<linearGradient id="paint1_linear_845_6509" x1="45.9904" y1="28.9839" x2="13.1006" y2="28.9839" gradientUnits="userSpaceOnUse">
<stop stop-color="#FFE000"/>
<stop offset="0.4087" stop-color="#FFBD00"/>
<stop offset="0.7754" stop-color="#FFA500"/>
<stop offset="1" stop-color="#FF9C00"/>
</linearGradient>
<linearGradient id="paint2_linear_845_6509" x1="33.7457" y1="25.7713" x2="1.89795" y2="-5.14969" gradientUnits="userSpaceOnUse">
<stop stop-color="#FF3A44"/>
<stop offset="1" stop-color="#C31162"/>
</linearGradient>
<linearGradient id="paint3_linear_845_6509" x1="9.91828" y1="56.7392" x2="24.1397" y2="42.9317" gradientUnits="userSpaceOnUse">
<stop stop-color="#32A071"/>
<stop offset="0.0685" stop-color="#2DA771"/>
<stop offset="0.4762" stop-color="#15CF74"/>
<stop offset="0.8009" stop-color="#06E775"/>
<stop offset="1" stop-color="#00F076"/>
</linearGradient>
</defs>
</svg>
